<?xml version="1.0" encoding="utf-8"?>
<!-- Generator: Adobe Illustrator 25.4.1, SVG Export Plug-In . SVG Version: 6.00 Build 0)  -->
<svg version="1.1" id="buy-hand" xmlns="http://www.w3.org/2000/svg" xmlns:xlink="http://www.w3.org/1999/xlink" x="0px" y="0px"
	 viewBox="0 0 1010 1010" style="enable-background:new 0 0 1010 1010;" xml:space="preserve">
<style type="text/css">
	.st0{fill:url(#buy-hand-label_00000164489751359212720460000017724035355301683610_);}
	.st1{fill:url(#SVGID_1_);}
	.st2{fill:#454545;}
	.st3{fill:#FFFFFF;}
</style>
<g id="buy-hand-buy-hand">
	
		<linearGradient id="buy-hand-label_00000046336235398677516900000017417482227257388433_" gradientUnits="userSpaceOnUse" x1="0" y1="505" x2="1010" y2="505">
		<stop  offset="0" style="stop-color:#FFC5FF"/>
		<stop  offset="1" style="stop-color:#83FFFF"/>
	</linearGradient>
	
		<circle id="buy-hand-label" style="fill:url(#buy-hand-label_00000046336235398677516900000017417482227257388433_);" cx="505" cy="505" r="505"/>
	<g id="buy-hand-buy-hand_1_">
		<g>
			<linearGradient id="SVGID_1_" gradientUnits="userSpaceOnUse" x1="6.3501" y1="472.3082" x2="987.5143" y2="472.3082">
				<stop  offset="0" style="stop-color:#FFCFFF"/>
				<stop  offset="0.9558" style="stop-color:#AFFFFF"/>
			</linearGradient>
			<path class="st1" d="M420.6,644H257.5c-11.1,0-20.2-9.1-20.2-20.2v-303c0-11.1,9.1-20.2,20.2-20.2h494.9
				c11.1,0,20.2,9.1,20.2,20.2v303c0,11.1-9.1,20.2-20.2,20.2H649.3"/>
			<path class="st2" d="M752.5,654.1H649.3c-5.6,0-10.1-4.5-10.1-10.1s4.5-10.1,10.1-10.1h103.1c5.6,0,10.1-4.5,10.1-10.1v-303
				c0-5.6-4.5-10.1-10.1-10.1H257.5c-5.6,0-10.1,4.5-10.1,10.1v303c0,5.6,4.5,10.1,10.1,10.1h163.1c5.6,0,10.1,4.5,10.1,10.1
				c0,5.6-4.5,10.1-10.1,10.1H257.5c-16.7,0-30.3-13.6-30.3-30.3v-303c0-16.7,13.6-30.3,30.3-30.3h494.9c16.7,0,30.3,13.6,30.3,30.3
				v303C782.8,640.5,769.2,654.1,752.5,654.1L752.5,654.1z"/>
		</g>
		<g>
			<path class="st2" d="M378.6,395.3c27.8,0,45.1,12.7,45.1,33.6c0,15.2-9,26.5-23.6,29.9c18,3.1,28.8,15.9,28.8,34
				c0,23-18.6,36.8-48.9,36.8h-59.7V395.3H378.6z M342.9,450.9h34.5c14.4,0,23-6.7,23-18c0-11.3-8.6-17.5-23-17.5h-34.5V450.9z
				 M342.9,509.4h34.5c17.7,0,28.2-6.9,28.2-19.6c0-11.9-10.6-19-28.2-19h-34.5V509.4z"/>
			<path class="st2" d="M569.9,473.9c0,35.1-22.1,56.6-58.3,56.6c-36.3,0-58.5-21.5-58.5-56.6v-78.7h22.6v78.7
				c0,22.6,14,36.3,36.1,36.3c21.9,0,35.5-13.4,35.5-36.3v-78.7h22.6V473.9z"/>
			<path class="st2" d="M657.5,529.6H635v-43.9l-50.1-90.4h22.8l38.4,65.4l37.6-65.4h23l-49.3,89.6V529.6z"/>
		</g>
		<g>
			<path class="st3" d="M529.7,578.5c-8.4-8.4-21.2-9.3-29.5-1c-8.3,8.3-7.6,21,0.7,29.3l-10.1-10.1c-8.4-8.4-21.2-9.3-29.5-0.9
				c-8.3,8.3-7.6,20.9,0.8,29.3l-63.1-63.1c-8.4-8.4-21-9-29.3-0.7c-8.3,8.3-7.4,21.2,1,29.5l99.1,99.1l-47.3-1.6
				c-11.7-0.1-20.8,9.7-20.6,21.6c0.1,11.9,8,18.1,19.6,20.1c39,7,138.1,61.2,168.3,30.9c20.2-20.2,43.8-43.8,43.8-43.8
				s33.3-58.6-7.7-99.6l-56.9-56.9c-8.4-8.4-21.2-9.3-29.5-1c-8.3,8.3-7.6,20.9,0.7,29.3L529.7,578.5z"/>
			<path class="st2" d="M561.8,780.1c-28.1,0-64.5-13.5-96.7-25.4c-17.9-6.6-34.9-12.9-45.6-14.8c-17.6-3.2-27.7-14.1-27.9-30
				c-0.1-8.6,3.2-16.9,9.1-22.9c5.7-5.8,13.3-8.9,21.4-8.9l22.3,0.8l-81-81c-12.6-12.6-13-31.8-1-43.8c11.7-11.7,31.5-11.3,43.6,0.7
				l42.1,42.1c1.5-3,3.5-5.8,6-8.3c8.3-8.3,21-10.8,31.8-6.8c1.4-4.2,3.8-8,7.2-11.4c8.4-8.4,21.3-10.8,32.1-6.7
				c1.4-4.1,3.8-7.9,7.1-11.2c11.7-11.7,31.7-11.2,43.8,1l56.9,56.9c36.7,36.7,22.2,89.2,9.4,111.8c-0.4,0.8-1,1.5-1.6,2.2
				L596.8,768C588.8,776,577,780.1,561.8,780.1L561.8,780.1z M422,698.3c-3.3,0-5.5,1.6-6.9,3c-2.1,2.2-3.3,5.2-3.3,8.4
				c0,2.9,0.1,8.3,11.3,10.3c12.5,2.2,29.4,8.5,49,15.8c29.1,10.7,65.2,24.1,89.7,24.1c9.6,0,16.6-2.1,20.7-6.2l42.8-42.8
				c4.1-7.9,25.9-53.8-6.7-86.4l-56.9-56.9c-2.4-2.4-5.5-3.8-8.5-3.8c-1.8,0-4.4,0.5-6.7,2.8c-4.2,4.2-3.9,10.4,0.7,15
				c3.9,3.9,3.9,10.3,0,14.3c-3.9,3.9-10.3,3.9-14.3,0l-10.5-10.5c-2.4-2.4-5.5-3.8-8.5-3.8c-1.8,0-4.4,0.5-6.7,2.8
				c-4.2,4.2-3.9,10.3,0.7,15h0c3.9,3.9,4,10.4,0,14.3c0,0,0,0,0,0l0,0c0,0,0,0,0,0l0,0c0,0,0,0,0,0c0,0,0,0,0,0l0,0
				c-0.1,0.1-0.2,0.2-0.4,0.3c0,0,0,0,0,0c0,0,0,0,0,0c0,0,0,0,0,0c-1.3,1.2-2.9,1.9-4.5,2.3c-3.2,0.7-6.8-0.2-9.3-2.7l-10.1-10.2
				c-2.4-2.4-5.5-3.8-8.5-3.8c-1.8,0-4.4,0.5-6.7,2.9c-2,2-3,4.5-2.9,7.1c0.1,2.8,1.4,5.6,3.6,7.9c0,0,0,0,0,0c0,0,0,0,0,0
				c0,0,0,0,0,0c0,0,0,0,0,0c0,0,0,0,0,0c0,0,0,0,0,0s0,0,0,0c0,0,0,0,0,0c0,0,0,0,0,0c0,0,0,0,0,0c0,0,0-0.1,0,0c0,0,0,0,0,0
				c0,0,0,0,0,0c0,0,0,0,0,0c0,0,0,0,0,0l0,0c0,0,0,0,0,0c0,0,0,0,0,0l0,0c0,0,0,0,0,0c0,0,0,0,0,0c0,0,0,0,0,0c0,0,0,0,0,0
				c0,0,0,0,0,0c0,0,0,0,0,0c0,0,0,0,0,0c0,0,0,0,0,0c0,0,0,0,0,0c0,0,0,0,0,0c0,0,0,0,0,0l0,0c0,0,0,0,0,0c0,0,0,0,0,0c0,0,0,0,0,0
				c0,0,0,0,0,0c0,0,0,0,0,0l0,0c0,0,0,0,0,0c0,0,0,0,0,0c0,0,0,0,0,0c0,0,0,0,0,0c0,0,0,0,0,0c0,0,0,0,0,0l0,0c0,0,0,0,0,0h0
				c0,0,0,0,0,0l0,0c0,0,0,0,0,0h0c0,0,0,0,0,0l0,0c0,0,0,0,0,0c0,0,0,0.1,0,0c0,0,0,0,0,0c0,0,0,0,0,0c0,0,0,0,0,0c0,0,0,0,0,0
				c0,0,0,0,0,0c0,0,0,0,0,0h0c0,0,0,0,0,0l0,0c0,0,0,0,0,0c0,0,0,0,0,0c0,0,0,0,0,0c0,0,0,0,0,0c0,0,0,0,0,0c0,0,0,0,0,0l0,0
				c0,0,0,0,0,0h0c0,0,0,0,0,0c0,0,0,0,0,0c0,0,0-0.1,0,0c0,0,0,0,0,0c0,0,0,0,0,0l0,0c0,0,0,0,0,0l0,0c0,0,0,0,0,0l0,0c0,0,0,0,0,0
				c0,0,0-0.1,0,0l0,0c0,0,0,0,0,0l0,0c0,0,0,0,0,0l0,0c0,0,0,0,0,0l0,0c0,0,0,0,0,0c0,0,0,0,0,0l0,0c0,0,0,0,0,0l0,0
				c1.6,2.4,2,5.3,1.4,7.9l0,0c0,0,0,0,0,0.1l0,0c0,0,0,0,0,0c0,0,0,0,0,0c0,0,0,0,0,0c0,0,0.1,0,0,0c0,0,0,0,0,0c0,0,0,0,0,0
				c0,0,0,0,0,0c0,0,0,0,0,0c0,0,0,0,0,0c0,0,0,0,0,0c0,0,0,0,0,0c0,0,0,0,0,0c0,0,0,0,0,0c0,0,0,0,0,0l0,0c0,0,0,0,0,0c0,0,0,0,0,0
				l0,0c0,0,0,0,0,0c0,0,0,0,0,0c0,0,0,0,0,0c0,0,0,0,0,0c0,0,0,0,0,0c0,0,0,0,0,0c0,0,0,0,0,0l0,0c0,0,0,0,0,0c0,0,0,0,0,0
				c0,0,0,0,0,0c0,0,0,0,0,0c0,0,0,0,0,0l0,0c0,0,0,0,0,0c0,0,0,0,0,0c0,0,0,0,0,0c0,0,0,0,0,0v0c0,0,0,0,0,0c0,0,0,0,0,0l0,0
				c0,0,0,0,0,0c0,0,0,0,0,0c0,0,0,0,0,0c0,0,0-0.1,0,0c0,0,0,0,0,0l0,0c0,0,0,0,0,0l0,0c0,0,0,0,0,0.1l0,0c-0.4,1.2-1,2.3-1.9,3.3
				l0,0c0,0,0,0,0,0c0,0,0,0,0,0h0c0,0,0,0,0,0c0,0,0,0,0,0c0,0,0,0,0,0c0,0,0.1,0,0,0l0,0c0,0,0,0,0,0c0,0,0,0,0,0c0,0,0,0,0,0h0
				c0,0,0,0,0,0c0,0,0.1,0,0,0c0,0,0,0,0,0h0c0,0,0,0,0,0c0,0,0,0,0,0c0,0,0,0,0,0c0,0,0,0,0,0c0,0,0,0,0,0c0,0,0,0,0,0c0,0,0,0,0,0
				c0,0,0,0,0,0c0,0,0,0,0,0c0,0,0,0,0,0c0,0,0,0,0,0c0,0,0,0,0,0l0,0l0,0c0,0,0,0,0,0c0,0,0,0,0,0c0,0,0,0,0,0c0,0,0,0,0,0
				c0,0,0,0,0,0c0,0,0,0,0,0c0,0,0,0,0,0c0,0,0,0,0,0c0,0,0,0,0,0h0c0,0,0,0,0,0c0,0,0,0,0,0c0,0,0,0,0,0l0,0c0,0,0,0,0,0
				c0,0,0,0,0,0c0,0,0,0,0,0l0,0c-2,1.8-4.5,2.6-7,2.7c0,0,0,0,0,0c0,0,0,0,0,0c0,0,0,0,0,0c0,0,0,0,0,0c0,0,0,0,0,0c0,0,0,0,0,0
				c0,0,0,0-0.1,0h0c-2.3-0.1-4.5-1-6.3-2.6l0,0c0,0,0,0,0,0l0,0c0,0,0,0,0,0l0,0c0,0,0,0,0,0l0,0c0,0,0,0,0,0c0,0,0,0,0,0
				c0,0,0,0,0,0c0,0,0,0,0,0c0,0,0,0,0,0l0,0c0,0,0,0,0,0c0,0,0,0,0,0c0,0,0,0,0,0c0,0,0,0,0,0c0,0,0,0,0,0c0,0,0,0,0,0c0,0,0,0,0,0
				c0,0,0,0,0,0c0,0,0,0,0,0c0,0,0,0,0,0l-63.1-63.1c-4.4-4.4-10.9-4.9-15-0.7c-4.7,4.7-3.1,11.2,1,15.3l99.1,99.1
				c2.9,2.9,3.8,7.4,2.1,11.2c-1.7,3.8-5.2,6.3-9.6,6.1L422,698.3L422,698.3z"/>
		</g>
	</g>
</g>
</svg>
