<?xml version="1.0" encoding="utf-8"?>
<!-- Generator: Adobe Illustrator 25.4.1, SVG Export Plug-In . SVG Version: 6.00 Build 0)  -->
<svg version="1.1" id="Layer_1" xmlns="http://www.w3.org/2000/svg" xmlns:xlink="http://www.w3.org/1999/xlink" x="0px" y="0px"
	 viewBox="0 0 64 64" style="enable-background:new 0 0 64 64;" xml:space="preserve">
<style type="text/css">
	.st0{fill:url(#SVGID_1_);}
</style>
<linearGradient id="SVGID_1_" gradientUnits="userSpaceOnUse" x1="9.9825" y1="34.0231" x2="54.0271" y2="34.0231" gradientTransform="matrix(1 0 0 -1 0 66)">
	<stop  offset="0" style="stop-color:#FFC1FF"/>
	<stop  offset="0.248" style="stop-color:#E3D2FF"/>
	<stop  offset="0.533" style="stop-color:#CAE1FF"/>
	<stop  offset="0.7921" style="stop-color:#BAEBFF"/>
	<stop  offset="1" style="stop-color:#B5EEFF"/>
</linearGradient>
<path class="st0" d="M54,20c0-0.2-0.1-0.5-0.3-0.6c-0.2-0.2-0.4-0.3-0.6-0.3l0,0c0.7-1.3,1-2.8,0.9-4.3c0-0.2-0.1-0.5-0.3-0.6
	c-0.2-0.2-0.4-0.3-0.6-0.3c-1.1-0.1-2.2,0.1-3.3,0.4c0.3-0.7,0.5-1.5,0.5-2.2c0-2.7-2.5-4.8-2.6-4.9c-0.2-0.2-0.4-0.2-0.6-0.2
	c-0.2,0-0.5,0.1-0.6,0.2c-0.1,0.1-2.6,2.2-2.6,4.9c0,0.8,0.2,1.6,0.5,2.3c-1.1-0.4-2.2-0.5-3.3-0.4c-0.2,0-0.5,0.1-0.6,0.3
	c-0.2,0.2-0.3,0.4-0.3,0.6c-0.1,1.5,0.2,3,0.9,4.3l0,0c-0.2,0-0.5,0.1-0.6,0.3c-0.2,0.2-0.3,0.4-0.3,0.6c-0.1,1.5,0.2,3,0.9,4.3l0,0
	c-0.2,0-0.5,0.1-0.6,0.3c-0.2,0.2-0.3,0.4-0.3,0.6c-0.1,1.5,0.2,3,0.9,4.3l0,0c-0.2,0-0.5,0.1-0.6,0.3c-0.2,0.2-0.3,0.4-0.3,0.6
	c0,0.1-0.3,3.4,1.7,5.3c1.2,1,2.7,1.6,4.2,1.7v8.1c-0.9,0.1-1.8,0.5-2.6,1c-0.8,0.5-1.4,1.2-1.9,2c-1.2-0.5-2.6-0.7-3.9-0.4
	c-0.5-0.9-1.2-1.6-2.1-2.1C34.9,45.5,34,45.1,33,45v-7.6c1.6,0,3.1-0.6,4.2-1.7c1.9-1.9,1.7-5.2,1.7-5.3c0-0.2-0.1-0.5-0.3-0.6
	s-0.4-0.3-0.6-0.3c0.7-1.3,1-2.8,0.9-4.3c0-0.2-0.1-0.5-0.3-0.6c-0.2-0.2-0.4-0.3-0.6-0.3l0,0c0.7-1.3,1-2.8,0.9-4.3
	c0-0.2-0.1-0.4-0.3-0.6c-0.2-0.2-0.4-0.3-0.6-0.3c0.7-1.3,1-2.8,0.9-4.3c0-0.2-0.1-0.5-0.3-0.6s-0.4-0.3-0.6-0.3
	c-1.1-0.1-2.2,0.1-3.3,0.4c0.3-0.7,0.5-1.5,0.5-2.2c0-2.7-2.5-4.8-2.6-4.9C32.5,7,32.3,6.9,32,6.9c-0.2,0-0.5,0.1-0.6,0.2
	c-0.1,0.1-2.6,2.2-2.6,4.9c0,0.8,0.2,1.6,0.5,2.3c-1.1-0.4-2.2-0.5-3.4-0.4c-0.2,0-0.5,0.1-0.6,0.3c-0.2,0.2-0.3,0.4-0.3,0.6
	c-0.1,1.5,0.2,3,0.9,4.3l0,0c-0.2,0-0.5,0.1-0.6,0.3s-0.3,0.4-0.3,0.6c-0.1,1.5,0.2,3,0.9,4.3l0,0c-0.2,0-0.5,0.1-0.6,0.3
	s-0.3,0.4-0.3,0.6c-0.1,1.5,0.2,3,0.9,4.3l0,0c-0.2,0-0.5,0.1-0.6,0.3s-0.3,0.4-0.3,0.6c0,0.1-0.3,3.4,1.7,5.3
	c1.2,1,2.7,1.6,4.2,1.7V45c-0.9,0.1-1.8,0.4-2.6,0.9c-0.8,0.5-1.5,1.1-2,1.8c-1.9-0.6-3.8-0.4-5.6,0.3c-0.8-0.8-1.8-1.4-3-1.6l0,0
	v-9c1.6,0,3.1-0.6,4.2-1.7c1.9-1.9,1.7-5.2,1.7-5.3c0-0.2-0.1-0.5-0.3-0.6c-0.2-0.2-0.4-0.3-0.6-0.3c0.7-1.3,1-2.8,0.9-4.3
	c0-0.2-0.1-0.5-0.3-0.6c-0.2-0.2-0.4-0.3-0.6-0.3l0,0c0.7-1.3,1-2.8,0.9-4.4c0-0.2-0.1-0.5-0.3-0.6c-0.2-0.2-0.4-0.3-0.6-0.3l0,0
	c0.7-1.3,1-2.8,0.9-4.3c0-0.2-0.1-0.5-0.3-0.6c-0.2-0.2-0.4-0.3-0.6-0.3c-1.1-0.1-2.2,0.1-3.3,0.4c0.3-0.7,0.5-1.5,0.5-2.2
	c0-2.7-2.5-4.8-2.6-4.9c-0.2-0.2-0.4-0.2-0.6-0.2c-0.2,0-0.5,0.1-0.6,0.2c-0.1,0.1-2.6,2.2-2.6,4.9c0,0.8,0.2,1.6,0.5,2.3
	c-1.1-0.4-2.2-0.5-3.3-0.4c-0.2,0-0.5,0.1-0.6,0.3c-0.2,0.2-0.3,0.4-0.3,0.6c-0.1,1.5,0.2,3,0.9,4.3l0,0c-0.2,0-0.5,0.1-0.6,0.3
	C10.1,19.5,10,19.8,10,20c-0.1,1.5,0.2,3,0.9,4.3l0,0c-0.2,0-0.5,0.1-0.6,0.3C10.1,24.8,10,25,10,25.2c-0.1,1.5,0.2,3,0.9,4.3l0,0
	c-0.2,0-0.5,0.1-0.6,0.3C10.1,30,10,30.2,10,30.5c0,0.1-0.3,3.4,1.7,5.3c1.2,1,2.7,1.6,4.2,1.7v9c-1.3,0.2-2.5,1-3.3,2
	c-0.8,1.1-1.2,2.4-1.1,3.7c0.1,1.3,0.7,2.6,1.7,3.5c1,0.9,2.3,1.4,3.6,1.4h33.1c0.1,0,0.2,0,0.3-0.1c0,0,0.1,0,0.1-0.1
	c0,0,0.1,0,0.1,0c1-0.7,1.9-1.7,2.3-2.9c0.5-1.2,0.6-2.4,0.3-3.7c-0.3-1.2-0.9-2.3-1.8-3.2c-0.9-0.9-2.1-1.4-3.3-1.6v-8.1
	c1.6,0,3.1-0.6,4.2-1.7c1.9-1.9,1.7-5.2,1.7-5.3c0-0.2-0.1-0.5-0.3-0.6s-0.4-0.3-0.6-0.3c0.7-1.3,1-2.8,0.9-4.3
	c0-0.2-0.1-0.5-0.3-0.6c-0.2-0.2-0.4-0.3-0.6-0.3C53.8,23,54.1,21.5,54,20z M52,21.1c0,1-0.4,2-1.1,2.8c-0.8,0.7-1.8,1.1-2.8,1.1
	c0-1,0.4-2,1.1-2.8C50,21.5,51,21.1,52,21.1L52,21.1z M45,22.2c0.7,0.8,1.1,1.8,1.1,2.8c-1,0-2-0.4-2.8-1.1c-0.7-0.8-1-1.8-1.1-2.8
	C43.3,21.2,44.2,21.5,45,22.2L45,22.2z M45,27.4c0.7,0.8,1.1,1.8,1.1,2.8c-1,0-2-0.4-2.8-1.1c-0.7-0.8-1-1.8-1.1-2.8
	C43.3,26.4,44.2,26.8,45,27.4L45,27.4z M50.9,29.1c-0.8,0.7-1.8,1-2.8,1.1c0-1,0.4-2,1.1-2.8c0.8-0.7,1.8-1,2.8-1.1
	C52,27.4,51.6,28.3,50.9,29.1L50.9,29.1z M50.9,18.6c-0.8,0.7-1.8,1-2.8,1.1c0-1,0.4-2,1.1-2.8c0.8-0.7,1.8-1,2.8-1.1
	C52,16.9,51.6,17.9,50.9,18.6L50.9,18.6z M47.1,9.3c0.7,0.7,1.1,1.7,1.2,2.7c-0.1,1-0.5,2-1.2,2.7C46.4,14,46,13.1,45.9,12
	C46,11,46.4,10.1,47.1,9.3L47.1,9.3z M45,16.9c0.7,0.8,1,1.8,1.1,2.8c-1,0-2-0.4-2.8-1.1c-0.7-0.8-1-1.8-1.1-2.8
	C43.2,15.9,44.2,16.3,45,16.9z M43.3,34.4c-0.7-0.8-1-1.8-1.1-2.8c1,0,2,0.4,2.8,1.1c0.7,0.8,1,1.8,1.1,2.8
	C45.1,35.4,44.1,35,43.3,34.4L43.3,34.4z M35.8,29.1c-0.8,0.7-1.8,1-2.8,1.1c0-1,0.4-2,1.1-2.8c0.8-0.7,1.8-1,2.8-1.1
	C36.8,27.4,36.5,28.3,35.8,29.1L35.8,29.1z M35.8,23.9C35,24.6,34,25,33,25c0-1,0.4-2,1.1-2.8c0.8-0.7,1.8-1,2.8-1.1
	C36.8,22.2,36.5,23.1,35.8,23.9z M29.9,22.2C30.6,23,31,24,31,25c-1,0-2-0.4-2.8-1.1c-0.7-0.8-1-1.8-1.1-2.8
	C28.1,21.2,29.1,21.5,29.9,22.2L29.9,22.2z M29.9,27.4c0.7,0.8,1.1,1.8,1.1,2.8c-1,0-2-0.4-2.8-1.1c-0.7-0.8-1-1.8-1.1-2.8
	C28.2,26.4,29.1,26.8,29.9,27.4L29.9,27.4z M35.8,34.4c-0.8,0.6-1.8,1-2.8,1c0-1,0.4-2,1.1-2.8c0.8-0.7,1.8-1,2.8-1.1
	C36.8,32.6,36.5,33.6,35.8,34.4L35.8,34.4z M35.8,18.7c-0.8,0.7-1.8,1-2.8,1c0-1,0.4-2,1.1-2.8c0.8-0.7,1.8-1,2.8-1.1
	C36.8,16.9,36.5,17.9,35.8,18.7L35.8,18.7z M32,9.3c0.7,0.7,1.1,1.7,1.2,2.7c-0.1,1-0.5,2-1.2,2.7c-0.7-0.7-1.1-1.7-1.2-2.7
	C30.9,11,31.3,10.1,32,9.3L32,9.3z M29.9,16.9c0.7,0.8,1.1,1.8,1.1,2.8c-1,0-2-0.4-2.8-1.1c-0.7-0.8-1-1.8-1.1-2.8
	C28.2,15.9,29.1,16.3,29.9,16.9z M28.2,34.4c-0.7-0.8-1-1.8-1.1-2.8c1,0,2,0.4,2.8,1.1c0.7,0.8,1.1,1.8,1.1,2.8
	C30,35.4,29,35,28.2,34.4L28.2,34.4z M20.7,29.1c-0.8,0.7-1.8,1-2.8,1.1c0-1,0.4-2,1.1-2.8c0.8-0.7,1.8-1,2.8-1.1
	C21.8,27.4,21.4,28.4,20.7,29.1z M20.7,23.9c-0.8,0.7-1.8,1.1-2.8,1.1c0-1,0.4-2,1.1-2.8c0.8-0.7,1.8-1,2.8-1.1
	C21.8,22.1,21.4,23.1,20.7,23.9L20.7,23.9z M14.8,22.2c0.7,0.8,1,1.8,1.1,2.8c-1,0-2-0.4-2.8-1.1c-0.7-0.8-1-1.8-1.1-2.8
	C13,21.1,14,21.5,14.8,22.2L14.8,22.2z M14.8,27.4c0.7,0.8,1,1.8,1.1,2.8c-1,0-2-0.4-2.8-1.1c-0.7-0.8-1-1.8-1.1-2.8
	C13,26.4,14,26.7,14.8,27.4L14.8,27.4z M20.7,34.4c-0.8,0.7-1.8,1-2.8,1.1c0-1,0.4-2,1.1-2.8c0.8-0.7,1.8-1,2.8-1.1
	C21.8,32.6,21.4,33.6,20.7,34.4L20.7,34.4z M20.7,18.7c-0.8,0.7-1.8,1-2.8,1.1c0-1,0.4-2,1.1-2.8c0.8-0.7,1.8-1,2.8-1.1
	C21.8,16.9,21.4,17.9,20.7,18.7L20.7,18.7z M16.9,9.4c0.7,0.7,1.1,1.7,1.2,2.7c-0.1,1-0.5,2-1.2,2.7c-0.7-0.7-1.1-1.7-1.2-2.7
	C15.8,11.1,16.2,10.1,16.9,9.4L16.9,9.4z M14.8,17c0.7,0.8,1,1.8,1.1,2.8c-1,0-2-0.4-2.8-1.1c-0.7-0.8-1-1.8-1.1-2.8
	C13,15.9,14,16.3,14.8,17L14.8,17z M13.1,34.4c-0.7-0.8-1-1.8-1.1-2.8c1,0,2,0.4,2.8,1.1c0.7,0.8,1,1.8,1.1,2.8
	C14.8,35.4,13.9,35,13.1,34.4L13.1,34.4z M51.4,51.7c0,0.7-0.2,1.3-0.4,1.9c-0.3,0.6-0.7,1.1-1.2,1.5H16.9c-0.6,0-1.2-0.2-1.7-0.4
	c-0.5-0.3-0.9-0.7-1.2-1.2c-0.3-0.5-0.5-1.1-0.5-1.7c0-0.6,0.1-1.2,0.4-1.7c0.3-0.5,0.7-0.9,1.2-1.3c0.5-0.3,1.1-0.5,1.7-0.5
	c0.6,0,1.2,0.1,1.7,0.4c0.5,0.3,1,0.7,1.3,1.2l0,0c0.1,0.1,0.1,0.2,0.2,0.2H20c0.1,0.1,0.2,0.1,0.3,0.1h0.1h0.2h0.1h0.1
	c0.1,0,0.2-0.1,0.3-0.1c0.8-0.5,1.7-0.7,2.7-0.8c0.9-0.1,1.9,0.1,2.8,0.5c0.1,0,0.1,0,0.2,0h0.2L27,50h0.2l0.2-0.1
	c0.1,0,0.1-0.1,0.2-0.1c0,0,0.1-0.1,0.1-0.1c0,0,0.1-0.1,0.1-0.1c0.4-0.8,1.1-1.4,1.8-1.9c0.8-0.4,1.7-0.7,2.6-0.6
	c0.9,0,1.8,0.3,2.5,0.8c0.7,0.5,1.3,1.2,1.7,2c0,0.1,0.1,0.2,0.2,0.2l0,0c0.1,0.1,0.2,0.1,0.2,0.2h0.1l0.2,0.1h0.1
	c0.1,0,0.1,0,0.1,0c0.1,0,0.1,0,0.2,0c0.7-0.2,1.4-0.3,2.1-0.2c0.7,0.1,1.4,0.3,1.9,0.7l0.1,0.1h0.1c0.1,0,0.2,0.1,0.3,0.1
	c0.1,0,0.2,0,0.4-0.1h0.1c0.1,0,0.1-0.1,0.2-0.1l0.1-0.1c0.1-0.1,0.1-0.1,0.1-0.2v-0.1c0,0,0,0,0,0c0.3-0.8,0.8-1.6,1.5-2.1
	s1.6-0.8,2.5-0.8c0.6,0,1.1,0.1,1.7,0.3c0.5,0.2,1,0.5,1.4,0.9c0.4,0.4,0.7,0.9,1,1.4C51.3,50.6,51.4,51.2,51.4,51.7z M50.9,34.4
	c-0.8,0.7-1.8,1-2.8,1.1c0-1,0.4-2,1.1-2.8c0.8-0.7,1.8-1,2.8-1.1C52,32.6,51.6,33.6,50.9,34.4L50.9,34.4z"/>
</svg>
