<?xml version="1.0" encoding="utf-8"?>
<!-- Generator: Adobe Illustrator 25.4.1, SVG Export Plug-In . SVG Version: 6.00 Build 0)  -->
<svg version="1.1" id="Layer_1" xmlns="http://www.w3.org/2000/svg" xmlns:xlink="http://www.w3.org/1999/xlink" x="0px" y="0px"
	 viewBox="0 0 576 576" style="enable-background:new 0 0 576 576;" xml:space="preserve">
<style type="text/css">
	.st0{fill:url(#SVGID_1_);}
	.st1{fill:url(#SVGID_00000059290794513082121490000009526895011178758019_);}
	.st2{fill:url(#SVGID_00000030472286501405149170000010073621630275808641_);}
	.st3{fill:url(#SVGID_00000090983914935558044590000007704376774297691264_);}
	.st4{fill-rule:evenodd;clip-rule:evenodd;fill:url(#SVGID_00000042017616447796361650000009830539302299247759_);}
	.st5{fill-rule:evenodd;clip-rule:evenodd;fill:url(#SVGID_00000018200603148894327220000003727137461261560759_);}
</style>
<g id="Layer_x0020_1">
	
		<linearGradient id="SVGID_1_" gradientUnits="userSpaceOnUse" x1="-660.1178" y1="823.5765" x2="-655.2433" y2="823.5765" gradientTransform="matrix(72 0 0 -72 47641 59437)">
		<stop  offset="0" style="stop-color:#FDCDFF"/>
		<stop  offset="1" style="stop-color:#C5FFFF"/>
	</linearGradient>
	<path class="st0" d="M457.7,175.3H118.3c-3.2,0-5.8-2.6-5.8-5.8v-60.1c0-3.2,2.6-5.8,5.8-5.8h339.4c3.2,0,5.8,2.6,5.8,5.8v60.1
		C463.5,172.7,460.9,175.3,457.7,175.3z"/>
	
		<linearGradient id="SVGID_00000097464905652741651090000003121775169528021176_" gradientUnits="userSpaceOnUse" x1="-660.0687" y1="819.3367" x2="-655.2924" y2="819.3367" gradientTransform="matrix(72 0 0 -72 47641 59437)">
		<stop  offset="0" style="stop-color:#FDCDFF"/>
		<stop  offset="1" style="stop-color:#DFFFFF"/>
	</linearGradient>
	<path style="fill:url(#SVGID_00000097464905652741651090000003121775169528021176_);" d="M121.8,417.2h332.4c3.2,0,5.8,2.6,5.8,5.8
		v43.6c0,3.2-2.6,5.8-5.8,5.8H121.8c-3.2,0-5.8-2.6-5.8-5.8V423C116.1,419.8,118.6,417.2,121.8,417.2L121.8,417.2z"/>
	
		<linearGradient id="SVGID_00000134237795791140472730000013216727420768565430_" gradientUnits="userSpaceOnUse" x1="-659.9474" y1="823.1472" x2="-659.9473" y2="823.1472" gradientTransform="matrix(72 0 0 -72 47641 59437)">
		<stop  offset="0" style="stop-color:#E4877C"/>
		<stop  offset="1" style="stop-color:#B03686"/>
	</linearGradient>
	<path style="fill:url(#SVGID_00000134237795791140472730000013216727420768565430_);" d="M124.8,170.4
		C124.8,170.4,124.8,170.4,124.8,170.4L124.8,170.4z"/>
	
		<linearGradient id="SVGID_00000178163732173309657350000017237343005460499896_" gradientUnits="userSpaceOnUse" x1="-659.9346" y1="822.6739" x2="-655.4332" y2="822.6739" gradientTransform="matrix(72 0 0 -72 47641 59437)">
		<stop  offset="0" style="stop-color:#FDCDFF"/>
		<stop  offset="1" style="stop-color:#DFFFFF"/>
	</linearGradient>
	<path style="fill:url(#SVGID_00000178163732173309657350000017237343005460499896_);" d="M234.9,195.4c-2.9,5.8-6.7,11-11.2,15.5
		c-10.6,10.5-25.2,17-41.3,17c-1.4,0,1,0-0.7,0c-16.3-0.2-30.5-6.5-40.7-16.8c-7.9-8-13.3-18.3-15.3-30h104.2h9.9h95.1h9.9h105
		c-2.4,11.6-8.1,21.9-16.2,29.8c-10.6,10.5-25.2,17-41.3,17c-14.6,0-28-5.4-38.3-14.3c-5.8-5-10.7-11.2-14.2-18.2
		c-2.9,5.8-6.7,11-11.2,15.5c-10.6,10.5-25.2,17-41.3,17c-14.6,0-28-5.4-38.3-14.3C243.2,208.6,238.3,202.4,234.9,195.4L234.9,195.4
		z"/>
	
		<linearGradient id="SVGID_00000057150625617943281930000002782965580345990068_" gradientUnits="userSpaceOnUse" x1="-659.9479" y1="821.2957" x2="-655.4172" y2="821.2957" gradientTransform="matrix(72 0 0 -72 47641 59437)">
		<stop  offset="0" style="stop-color:#FDCDFF"/>
		<stop  offset="1" style="stop-color:#DFFFFF"/>
	</linearGradient>
	<path style="fill-rule:evenodd;clip-rule:evenodd;fill:url(#SVGID_00000057150625617943281930000002782965580345990068_);" d="
		M451,411.4V196c-3.2,7-7.7,13.5-13.3,19c-12.1,12-28.3,18.7-45.3,18.7c-15.5,0-30.4-5.5-42.1-15.7c-3.9-3.4-7.4-7.2-10.4-11.4
		c-2.1,3-4.5,5.8-7.2,8.4c-12.1,12-28.3,18.7-45.3,18.7c-15.5,0-30.4-5.5-42.1-15.7c-3.9-3.4-7.4-7.2-10.4-11.4
		c-2.1,3-4.5,5.8-7.2,8.4c-12.1,12-28.3,18.7-45.3,18.7c-0.2,0-0.4,0-0.6,0l-0.1,0c-16.8-0.2-32.8-6.5-44.7-18.5
		c-5.1-5.2-9.2-11.2-12.2-17.8v214.1H338v-86.9c0-3.2,2.6-5.8,5.8-5.8h68.4c3.2,0,5.8,2.6,5.8,5.8v86.9L451,411.4L451,411.4z
		 M176.4,262.2h74.3c3.2,0,5.8,2.6,5.8,5.8v74.3c0,3.2-2.6,5.8-5.8,5.8h-74.3c-3.2,0-5.8-2.6-5.8-5.8v-74.3
		C170.6,264.8,173.2,262.2,176.4,262.2L176.4,262.2z"/>
	
		<linearGradient id="SVGID_00000012467060727232325730000007980283980302402493_" gradientUnits="userSpaceOnUse" x1="-661.6805" y1="821.5139" x2="-653.6805" y2="821.5139" gradientTransform="matrix(72 0 0 -72 47641 59437)">
		<stop  offset="0" style="stop-color:#FDCDFF"/>
		<stop  offset="1" style="stop-color:#DFFFFF"/>
	</linearGradient>
	<path style="fill-rule:evenodd;clip-rule:evenodd;fill:url(#SVGID_00000012467060727232325730000007980283980302402493_);" d="
		M92.2,0h391.7C534.5,0,576,41.5,576,92.2v391.7c0,50.7-41.5,92.2-92.2,92.2H92.2C41.5,576,0,534.5,0,483.8V92.2
		C0,41.5,41.5,0,92.2,0L92.2,0z M92.2,34.6h391.7c31.7,0,57.6,25.9,57.6,57.6v391.7c0,31.7-25.9,57.6-57.6,57.6H92.2
		c-31.7,0-57.6-25.9-57.6-57.6V92.2C34.6,60.5,60.5,34.6,92.2,34.6L92.2,34.6z"/>
</g>
</svg>
