<?xml version="1.0" encoding="utf-8"?>
<!-- Generator: Adobe Illustrator 25.4.1, SVG Export Plug-In . SVG Version: 6.00 Build 0)  -->
<svg version="1.1" id="Layer_1" xmlns="http://www.w3.org/2000/svg" xmlns:xlink="http://www.w3.org/1999/xlink" x="0px" y="0px"
	 viewBox="0 0 64 64" style="enable-background:new 0 0 64 64;" xml:space="preserve">
<style type="text/css">
	.st0{fill:#F9F9F9;}
</style>
<path class="st0" d="M59.8,31.8c-0.5,0-1,0.2-1.4,0.6c-0.4,0.4-0.6,0.9-0.6,1.4v2.8h-2.4V17.2c0-0.5-0.2-1-0.6-1.4
	c-0.4-0.4-0.9-0.6-1.4-0.6H34v-1.6c6.2-2.2,4.7-11.6-2-11.7s-8.2,9.4-2,11.7v1.6H10.6c-0.5,0-1,0.2-1.4,0.6
	c-0.4,0.4-0.6,0.9-0.6,1.4v19.4H6.2v-2.8c0-0.5-0.2-1-0.6-1.4c-0.4-0.4-0.9-0.6-1.4-0.6s-1,0.2-1.4,0.6s-0.6,0.9-0.6,1.4v9.5
	c0,0.5,0.2,1,0.6,1.4c0.4,0.4,0.9,0.6,1.4,0.6s1-0.2,1.4-0.6c0.4-0.4,0.6-0.9,0.6-1.4v-2.8h2.4V60c0,0.5,0.2,1,0.6,1.4
	c0.4,0.4,0.9,0.6,1.4,0.6h42.8c0.5,0,1-0.2,1.4-0.6c0.4-0.4,0.6-0.9,0.6-1.4V40.6h2.4v2.8c0,0.5,0.2,1,0.6,1.4
	c0.4,0.4,0.9,0.6,1.4,0.6c0.5,0,1-0.2,1.4-0.6c0.4-0.4,0.6-0.9,0.6-1.4v-9.5c0-0.5-0.2-1-0.6-1.4C60.8,32.1,60.3,31.8,59.8,31.8z
	 M17.5,35.9v-8.4c0-0.5,0.2-1,0.6-1.4c0.4-0.4,0.9-0.6,1.4-0.6h7.6c0.5,0,1,0.2,1.4,0.6c0.4,0.4,0.6,0.9,0.6,1.4v8.4
	c0,0.5-0.2,1-0.6,1.4c-0.4,0.4-0.9,0.6-1.4,0.6h-7.6c-0.5,0-1-0.2-1.4-0.6C17.7,36.9,17.5,36.4,17.5,35.9z M39.7,49.3H24.3
	c-0.5,0-1-0.2-1.4-0.6c-0.4-0.4-0.6-0.9-0.6-1.4c0-0.5,0.2-1,0.6-1.4c0.4-0.4,0.9-0.6,1.4-0.6h15.3c0.5,0,1,0.2,1.4,0.6
	c0.4,0.4,0.6,0.9,0.6,1.4c0,0.5-0.2,1-0.6,1.4C40.7,49.1,40.2,49.3,39.7,49.3z M46.5,35.9c0,0.5-0.2,1-0.6,1.4
	c-0.4,0.4-0.9,0.6-1.4,0.6h-7.6c-0.5,0-1-0.2-1.4-0.6c-0.4-0.4-0.6-0.9-0.6-1.4v-8.4c0-0.5,0.2-1,0.6-1.4c0.4-0.4,0.9-0.6,1.4-0.6
	h7.6c0.5,0,1,0.2,1.4,0.6c0.4,0.4,0.6,0.9,0.6,1.4V35.9z"/>
</svg>
